<?xml version="1.0" encoding="utf-8"?>
<!-- Generator: Adobe Illustrator 22.1.0, SVG Export Plug-In . SVG Version: 6.00 Build 0)  -->
<svg version="1.1" id="Layer_1" xmlns="http://www.w3.org/2000/svg" xmlns:xlink="http://www.w3.org/1999/xlink" x="0px" y="0px"
	 viewBox="0 0 256 256" style="enable-background:new 0 0 256 256;" xml:space="preserve">
<style type="text/css">
	.st0{fill:none;stroke:url(#SVGID_1_);stroke-miterlimit:10;}
	.st1{fill:none;stroke:url(#SVGID_2_);stroke-miterlimit:10;}
	.st2{fill:none;stroke:url(#SVGID_3_);stroke-miterlimit:10;}
	.st3{fill:none;stroke:url(#SVGID_4_);stroke-miterlimit:10;}
	.st4{fill:none;stroke:url(#SVGID_5_);stroke-miterlimit:10;}
	.st5{fill:none;stroke:url(#SVGID_6_);stroke-miterlimit:10;}
	.st6{fill:none;stroke:url(#SVGID_7_);stroke-miterlimit:10;}
	.st7{fill:none;stroke:url(#SVGID_8_);stroke-miterlimit:10;}
	.st8{fill:none;stroke:url(#SVGID_9_);stroke-miterlimit:10;}
	.st9{fill:none;stroke:url(#SVGID_10_);stroke-miterlimit:10;}
	.st10{fill:none;stroke:url(#SVGID_11_);stroke-miterlimit:10;}
	.st11{fill:none;stroke:url(#SVGID_12_);stroke-miterlimit:10;}
	.st12{fill:none;stroke:url(#SVGID_13_);stroke-miterlimit:10;}
	.st13{fill:none;stroke:url(#SVGID_14_);stroke-miterlimit:10;}
	.st14{fill:none;stroke:url(#SVGID_15_);stroke-miterlimit:10;}
	.st15{fill:none;stroke:url(#SVGID_16_);stroke-miterlimit:10;}
	.st16{fill:none;stroke:url(#SVGID_17_);stroke-miterlimit:10;}
	.st17{fill:none;stroke:url(#SVGID_18_);stroke-miterlimit:10;}
	.st18{fill:none;stroke:url(#SVGID_19_);stroke-miterlimit:10;}
	.st19{fill:none;stroke:url(#SVGID_20_);stroke-miterlimit:10;}
	.st20{fill:none;stroke:url(#SVGID_21_);stroke-miterlimit:10;}
	.st21{fill:none;stroke:url(#SVGID_22_);stroke-miterlimit:10;}
	.st22{opacity:0.78;}
	.st23{fill:url(#SVGID_23_);}
	.st24{fill:url(#SVGID_24_);}
	.st25{fill:url(#SVGID_25_);}
	.st26{fill:url(#SVGID_26_);}
	.st27{fill:url(#SVGID_27_);}
	.st28{fill:url(#SVGID_28_);}
	.st29{fill:url(#SVGID_29_);}
	.st30{fill:none;stroke:url(#SVGID_30_);stroke-width:3;stroke-miterlimit:10;}
	.st31{fill:none;stroke:url(#SVGID_31_);stroke-width:3;stroke-miterlimit:10;}
	.st32{fill:none;stroke:url(#SVGID_32_);stroke-width:3;stroke-miterlimit:10;}
	.st33{fill:none;stroke:url(#SVGID_33_);stroke-width:3;stroke-miterlimit:10;}
	.st34{fill:none;stroke:url(#SVGID_34_);stroke-width:3;stroke-miterlimit:10;}
	.st35{fill:none;stroke:url(#SVGID_35_);stroke-width:3;stroke-miterlimit:10;}
	.st36{fill:none;stroke:url(#SVGID_36_);stroke-width:3;stroke-miterlimit:10;}
</style>
<g id="Layer_1_1_">
	<g>
		
			<linearGradient id="SVGID_1_" gradientUnits="userSpaceOnUse" x1="25.2349" y1="197.5169" x2="326.8191" y2="197.5169" gradientTransform="matrix(0.9397 -0.342 -0.342 -0.9397 2.4554 286.9365)">
			<stop  offset="0" style="stop-color:#F2F2F2"/>
			<stop  offset="0.2899" style="stop-color:#EEEEEE"/>
			<stop  offset="0.5051" style="stop-color:#E6E6E6"/>
			<stop  offset="0.7121" style="stop-color:#EEEEEE"/>
			<stop  offset="1" style="stop-color:#F2F2F2"/>
		</linearGradient>
		<line class="st0" x1="-41.4" y1="92.7" x2="242" y2="-10.4"/>
	</g>
	<g>
		
			<linearGradient id="SVGID_2_" gradientUnits="userSpaceOnUse" x1="287.7" y1="244.9" x2="287.7" y2="244.9" gradientTransform="matrix(0.9063 0.4226 0.4226 -0.9063 -43.4296 188.5983)">
			<stop  offset="0" style="stop-color:#F2F2F2"/>
			<stop  offset="0.2082" style="stop-color:#D1D1D1"/>
			<stop  offset="0.3887" style="stop-color:#BBBBBB"/>
			<stop  offset="0.5051" style="stop-color:#B3B3B3"/>
			<stop  offset="0.6188" style="stop-color:#BBBBBB"/>
			<stop  offset="0.7931" style="stop-color:#D0D0D0"/>
			<stop  offset="1" style="stop-color:#F2F2F2"/>
		</linearGradient>
		<path class="st1" d="M320.8,88.2"/>
	</g>
	<g>
		
			<linearGradient id="SVGID_3_" gradientUnits="userSpaceOnUse" x1="44.115" y1="202.2899" x2="44.115" y2="202.2899" gradientTransform="matrix(0.9397 -0.342 -0.342 -0.9397 2.4554 286.9365)">
			<stop  offset="0" style="stop-color:#F2F2F2"/>
			<stop  offset="0.2082" style="stop-color:#D1D1D1"/>
			<stop  offset="0.3887" style="stop-color:#BBBBBB"/>
			<stop  offset="0.5051" style="stop-color:#B3B3B3"/>
			<stop  offset="0.6188" style="stop-color:#BBBBBB"/>
			<stop  offset="0.7931" style="stop-color:#D0D0D0"/>
			<stop  offset="1" style="stop-color:#F2F2F2"/>
		</linearGradient>
		<path class="st2" d="M-25.3,81.8"/>
	</g>
	<g>
		
			<linearGradient id="SVGID_4_" gradientUnits="userSpaceOnUse" x1="25.9422" y1="170.1163" x2="327.4554" y2="170.1163" gradientTransform="matrix(0.9397 -0.342 -0.342 -0.9397 2.4554 286.9365)">
			<stop  offset="0" style="stop-color:#F2F2F2"/>
			<stop  offset="0.2899" style="stop-color:#EEEEEE"/>
			<stop  offset="0.5051" style="stop-color:#E6E6E6"/>
			<stop  offset="0.7121" style="stop-color:#EEEEEE"/>
			<stop  offset="1" style="stop-color:#F2F2F2"/>
		</linearGradient>
		<line class="st3" x1="-31.3" y1="118.2" x2="252" y2="15.1"/>
	</g>
	<g>
		
			<linearGradient id="SVGID_5_" gradientUnits="userSpaceOnUse" x1="25.8713" y1="141.3721" x2="327.4555" y2="141.3721" gradientTransform="matrix(0.9397 -0.342 -0.342 -0.9397 2.4554 286.9365)">
			<stop  offset="0" style="stop-color:#F2F2F2"/>
			<stop  offset="0.2899" style="stop-color:#EEEEEE"/>
			<stop  offset="0.5051" style="stop-color:#E6E6E6"/>
			<stop  offset="0.7121" style="stop-color:#EEEEEE"/>
			<stop  offset="1" style="stop-color:#F2F2F2"/>
		</linearGradient>
		<line class="st4" x1="-21.6" y1="145.3" x2="261.8" y2="42.1"/>
	</g>
	<g>
		
			<linearGradient id="SVGID_6_" gradientUnits="userSpaceOnUse" x1="25.8713" y1="109.8348" x2="327.4555" y2="109.8348" gradientTransform="matrix(0.9397 -0.342 -0.342 -0.9397 2.4554 286.9365)">
			<stop  offset="0" style="stop-color:#F2F2F2"/>
			<stop  offset="0.2899" style="stop-color:#EEEEEE"/>
			<stop  offset="0.5051" style="stop-color:#E6E6E6"/>
			<stop  offset="0.7121" style="stop-color:#EEEEEE"/>
			<stop  offset="1" style="stop-color:#F2F2F2"/>
		</linearGradient>
		<line class="st5" x1="-10.8" y1="174.9" x2="272.6" y2="71.7"/>
	</g>
	<g>
		
			<linearGradient id="SVGID_7_" gradientUnits="userSpaceOnUse" x1="25.8714" y1="79.6764" x2="327.5261" y2="79.6764" gradientTransform="matrix(0.9397 -0.342 -0.342 -0.9397 2.4554 286.9365)">
			<stop  offset="0" style="stop-color:#F2F2F2"/>
			<stop  offset="0.2899" style="stop-color:#EEEEEE"/>
			<stop  offset="0.5051" style="stop-color:#E6E6E6"/>
			<stop  offset="0.7121" style="stop-color:#EEEEEE"/>
			<stop  offset="1" style="stop-color:#F2F2F2"/>
		</linearGradient>
		<line class="st6" x1="-0.5" y1="203.2" x2="283" y2="100"/>
	</g>
	<g>
		
			<linearGradient id="SVGID_8_" gradientUnits="userSpaceOnUse" x1="25.8713" y1="49.518" x2="327.4555" y2="49.518" gradientTransform="matrix(0.9397 -0.342 -0.342 -0.9397 2.4554 286.9365)">
			<stop  offset="0" style="stop-color:#F2F2F2"/>
			<stop  offset="0.2899" style="stop-color:#EEEEEE"/>
			<stop  offset="0.5051" style="stop-color:#E6E6E6"/>
			<stop  offset="0.7121" style="stop-color:#EEEEEE"/>
			<stop  offset="1" style="stop-color:#F2F2F2"/>
		</linearGradient>
		<line class="st7" x1="9.8" y1="231.5" x2="293.2" y2="128.4"/>
	</g>
	<g>
		
			<linearGradient id="SVGID_9_" gradientUnits="userSpaceOnUse" x1="25.9422" y1="19.3596" x2="327.4554" y2="19.3596" gradientTransform="matrix(0.9397 -0.342 -0.342 -0.9397 2.4554 286.9365)">
			<stop  offset="0" style="stop-color:#F2F2F2"/>
			<stop  offset="0.2899" style="stop-color:#EEEEEE"/>
			<stop  offset="0.5051" style="stop-color:#E6E6E6"/>
			<stop  offset="0.7121" style="stop-color:#EEEEEE"/>
			<stop  offset="1" style="stop-color:#F2F2F2"/>
		</linearGradient>
		<line class="st8" x1="20.2" y1="259.9" x2="303.5" y2="156.7"/>
	</g>
	<g>
		
			<linearGradient id="SVGID_10_" gradientUnits="userSpaceOnUse" x1="301" y1="11.8" x2="301" y2="11.8" gradientTransform="matrix(0.9063 0.4226 0.4226 -0.9063 -43.4296 188.5983)">
			<stop  offset="0" style="stop-color:#F2F2F2"/>
			<stop  offset="0.2082" style="stop-color:#D1D1D1"/>
			<stop  offset="0.3887" style="stop-color:#BBBBBB"/>
			<stop  offset="0.5051" style="stop-color:#B3B3B3"/>
			<stop  offset="0.6188" style="stop-color:#BBBBBB"/>
			<stop  offset="0.7931" style="stop-color:#D0D0D0"/>
			<stop  offset="1" style="stop-color:#F2F2F2"/>
		</linearGradient>
		<path class="st9" d="M234.4,305.1"/>
	</g>
	<g>
		
			<linearGradient id="SVGID_11_" gradientUnits="userSpaceOnUse" x1="56.2066" y1="20.7739" x2="56.2066" y2="20.7739" gradientTransform="matrix(0.9397 -0.342 -0.342 -0.9397 2.4554 286.9365)">
			<stop  offset="0" style="stop-color:#F2F2F2"/>
			<stop  offset="0.2082" style="stop-color:#D1D1D1"/>
			<stop  offset="0.3887" style="stop-color:#BBBBBB"/>
			<stop  offset="0.5051" style="stop-color:#B3B3B3"/>
			<stop  offset="0.6188" style="stop-color:#BBBBBB"/>
			<stop  offset="0.7931" style="stop-color:#D0D0D0"/>
			<stop  offset="1" style="stop-color:#F2F2F2"/>
		</linearGradient>
		<path class="st10" d="M48.2,248.2"/>
	</g>
	<g>
		
			<linearGradient id="SVGID_12_" gradientUnits="userSpaceOnUse" x1="81.8041" y1="-29.2898" x2="81.8041" y2="256.5255" gradientTransform="matrix(0.9397 -0.342 -0.342 -0.9397 2.4554 286.9365)">
			<stop  offset="0" style="stop-color:#F2F2F2"/>
			<stop  offset="0.3037" style="stop-color:#EDEDED"/>
			<stop  offset="0.5051" style="stop-color:#E6E6E6"/>
			<stop  offset="0.7121" style="stop-color:#EEEEEE"/>
			<stop  offset="1" style="stop-color:#F2F2F2"/>
		</linearGradient>
		<line class="st11" x1="89.3" y1="286.5" x2="-8.4" y2="17.9"/>
	</g>
	<g>
		
			<linearGradient id="SVGID_13_" gradientUnits="userSpaceOnUse" x1="22.5" y1="243" x2="22.5" y2="243" gradientTransform="matrix(0.9063 0.4226 0.4226 -0.9063 -43.4296 188.5983)">
			<stop  offset="0" style="stop-color:#F2F2F2"/>
			<stop  offset="8.901362e-02" style="stop-color:#E0E0E0"/>
			<stop  offset="0.2461" style="stop-color:#C7C7C7"/>
			<stop  offset="0.3893" style="stop-color:#B8B8B8"/>
			<stop  offset="0.5051" style="stop-color:#B3B3B3"/>
			<stop  offset="0.6173" style="stop-color:#BABABA"/>
			<stop  offset="0.7817" style="stop-color:#CECECE"/>
			<stop  offset="0.9775" style="stop-color:#EEEEEE"/>
			<stop  offset="1" style="stop-color:#F2F2F2"/>
		</linearGradient>
		<path class="st12" d="M79.7-22.1"/>
	</g>
	<g>
		
			<linearGradient id="SVGID_14_" gradientUnits="userSpaceOnUse" x1="19.3" y1="-23.1" x2="19.3" y2="-23.1" gradientTransform="matrix(0.9063 0.4226 0.4226 -0.9063 -43.4296 188.5983)">
			<stop  offset="0" style="stop-color:#F2F2F2"/>
			<stop  offset="8.901362e-02" style="stop-color:#E0E0E0"/>
			<stop  offset="0.2461" style="stop-color:#C7C7C7"/>
			<stop  offset="0.3893" style="stop-color:#B8B8B8"/>
			<stop  offset="0.5051" style="stop-color:#B3B3B3"/>
			<stop  offset="0.6173" style="stop-color:#BABABA"/>
			<stop  offset="0.7817" style="stop-color:#CECECE"/>
			<stop  offset="0.9775" style="stop-color:#EEEEEE"/>
			<stop  offset="1" style="stop-color:#F2F2F2"/>
		</linearGradient>
		<path class="st13" d="M-35.7,217.7"/>
	</g>
	<g>
		
			<linearGradient id="SVGID_15_" gradientUnits="userSpaceOnUse" x1="110.5837" y1="-28.6534" x2="110.5837" y2="257.1619" gradientTransform="matrix(0.9397 -0.342 -0.342 -0.9397 2.4554 286.9365)">
			<stop  offset="0" style="stop-color:#F2F2F2"/>
			<stop  offset="0.3037" style="stop-color:#EDEDED"/>
			<stop  offset="0.5051" style="stop-color:#E6E6E6"/>
			<stop  offset="0.7121" style="stop-color:#EEEEEE"/>
			<stop  offset="1" style="stop-color:#F2F2F2"/>
		</linearGradient>
		<line class="st14" x1="116.2" y1="276" x2="18.4" y2="7.5"/>
	</g>
	<g>
		
			<linearGradient id="SVGID_16_" gradientUnits="userSpaceOnUse" x1="139.3278" y1="-28.7242" x2="139.3278" y2="257.162" gradientTransform="matrix(0.9397 -0.342 -0.342 -0.9397 2.4554 286.9365)">
			<stop  offset="0" style="stop-color:#F2F2F2"/>
			<stop  offset="0.3037" style="stop-color:#EDEDED"/>
			<stop  offset="0.5051" style="stop-color:#E6E6E6"/>
			<stop  offset="0.7121" style="stop-color:#EEEEEE"/>
			<stop  offset="1" style="stop-color:#F2F2F2"/>
		</linearGradient>
		<line class="st15" x1="143.2" y1="266.3" x2="45.4" y2="-2.4"/>
	</g>
	<g>
		
			<linearGradient id="SVGID_17_" gradientUnits="userSpaceOnUse" x1="169.5216" y1="-28.7242" x2="169.5216" y2="257.162" gradientTransform="matrix(0.9397 -0.342 -0.342 -0.9397 2.4554 286.9365)">
			<stop  offset="0" style="stop-color:#F2F2F2"/>
			<stop  offset="0.3037" style="stop-color:#EDEDED"/>
			<stop  offset="0.5051" style="stop-color:#E6E6E6"/>
			<stop  offset="0.7121" style="stop-color:#EEEEEE"/>
			<stop  offset="1" style="stop-color:#F2F2F2"/>
		</linearGradient>
		<line class="st16" x1="171.5" y1="256" x2="73.8" y2="-12.7"/>
	</g>
	<g>
		
			<linearGradient id="SVGID_18_" gradientUnits="userSpaceOnUse" x1="199.68" y1="-28.6534" x2="199.68" y2="257.1619" gradientTransform="matrix(0.9397 -0.342 -0.342 -0.9397 2.4554 286.9365)">
			<stop  offset="0" style="stop-color:#F2F2F2"/>
			<stop  offset="0.3037" style="stop-color:#EDEDED"/>
			<stop  offset="0.5051" style="stop-color:#E6E6E6"/>
			<stop  offset="0.7121" style="stop-color:#EEEEEE"/>
			<stop  offset="1" style="stop-color:#F2F2F2"/>
		</linearGradient>
		<line class="st17" x1="199.9" y1="245.6" x2="102.1" y2="-23"/>
	</g>
	<g>
		
			<linearGradient id="SVGID_19_" gradientUnits="userSpaceOnUse" x1="229.803" y1="-28.6534" x2="229.803" y2="257.1619" gradientTransform="matrix(0.9397 -0.342 -0.342 -0.9397 2.4554 286.9365)">
			<stop  offset="0" style="stop-color:#F2F2F2"/>
			<stop  offset="0.3037" style="stop-color:#EDEDED"/>
			<stop  offset="0.5051" style="stop-color:#E6E6E6"/>
			<stop  offset="0.7121" style="stop-color:#EEEEEE"/>
			<stop  offset="1" style="stop-color:#F2F2F2"/>
		</linearGradient>
		<line class="st18" x1="228.2" y1="235.3" x2="130.4" y2="-33.3"/>
	</g>
	<g>
		
			<linearGradient id="SVGID_20_" gradientUnits="userSpaceOnUse" x1="259.9261" y1="-28.6534" x2="259.9261" y2="257.1619" gradientTransform="matrix(0.9397 -0.342 -0.342 -0.9397 2.4554 286.9365)">
			<stop  offset="0" style="stop-color:#F2F2F2"/>
			<stop  offset="0.3037" style="stop-color:#EDEDED"/>
			<stop  offset="0.5051" style="stop-color:#E6E6E6"/>
			<stop  offset="0.7121" style="stop-color:#EEEEEE"/>
			<stop  offset="1" style="stop-color:#F2F2F2"/>
		</linearGradient>
		<line class="st19" x1="256.5" y1="225" x2="158.7" y2="-43.6"/>
	</g>
	<g>
		
			<linearGradient id="SVGID_21_" gradientUnits="userSpaceOnUse" x1="197.5" y1="241" x2="197.5" y2="241" gradientTransform="matrix(0.9063 0.4226 0.4226 -0.9063 -43.4296 188.5983)">
			<stop  offset="0" style="stop-color:#F2F2F2"/>
			<stop  offset="8.901362e-02" style="stop-color:#E0E0E0"/>
			<stop  offset="0.2461" style="stop-color:#C7C7C7"/>
			<stop  offset="0.3893" style="stop-color:#B8B8B8"/>
			<stop  offset="0.5051" style="stop-color:#B3B3B3"/>
			<stop  offset="0.6173" style="stop-color:#BABABA"/>
			<stop  offset="0.7817" style="stop-color:#CECECE"/>
			<stop  offset="0.9775" style="stop-color:#EEEEEE"/>
			<stop  offset="1" style="stop-color:#F2F2F2"/>
		</linearGradient>
		<path class="st20" d="M237.4,53.6"/>
	</g>
	<g>
		
			<linearGradient id="SVGID_22_" gradientUnits="userSpaceOnUse" x1="213.5" y1="12" x2="213.5" y2="12" gradientTransform="matrix(0.9063 0.4226 0.4226 -0.9063 -43.4296 188.5983)">
			<stop  offset="0" style="stop-color:#F2F2F2"/>
			<stop  offset="8.901362e-02" style="stop-color:#E0E0E0"/>
			<stop  offset="0.2461" style="stop-color:#C7C7C7"/>
			<stop  offset="0.3893" style="stop-color:#B8B8B8"/>
			<stop  offset="0.5051" style="stop-color:#B3B3B3"/>
			<stop  offset="0.6173" style="stop-color:#BABABA"/>
			<stop  offset="0.7817" style="stop-color:#CECECE"/>
			<stop  offset="0.9775" style="stop-color:#EEEEEE"/>
			<stop  offset="1" style="stop-color:#F2F2F2"/>
		</linearGradient>
		<path class="st21" d="M155.1,268"/>
	</g>
</g>
<g id="Layer_2_1_" class="st22">
	
		<linearGradient id="SVGID_23_" gradientUnits="userSpaceOnUse" x1="88.6818" y1="106.3426" x2="102.8996" y2="81.7167" gradientTransform="matrix(0.9397 -0.342 -0.342 -0.9397 2.4554 286.9365)">
		<stop  offset="0" style="stop-color:#498CFB"/>
		<stop  offset="0.3378" style="stop-color:#3E82E2"/>
		<stop  offset="1" style="stop-color:#2971B4"/>
	</linearGradient>
	<path class="st23" d="M63.2,164.7l4.3-9.2c0.5-1.1,0-2.4-1.1-2.9c-1.1-0.5-2.4,0-2.9,1.1l-4.3,9.2l-9.3-4.4c-1.1-0.5-2.4,0-2.9,1.1
		s0,2.4,1.1,2.9l9.2,4.3l-4.3,9.2c-0.5,1.1,0,2.4,1.1,2.9s2.4,0,2.9-1.1l4.3-9.2l9.2,4.3c1.1,0.5,2.4,0,2.9-1.1
		c0.5-1.1,0-2.4-1.1-2.9L63.2,164.7z"/>
	
		<linearGradient id="SVGID_24_" gradientUnits="userSpaceOnUse" x1="147.6568" y1="106.3655" x2="161.8746" y2="81.7396" gradientTransform="matrix(0.9397 -0.342 -0.342 -0.9397 2.4554 286.9365)">
		<stop  offset="0" style="stop-color:#498CFB"/>
		<stop  offset="0.3378" style="stop-color:#3E82E2"/>
		<stop  offset="1" style="stop-color:#2971B4"/>
	</linearGradient>
	<path class="st24" d="M118.7,144.6l4.3-9.2c0.5-1.1,0-2.4-1.1-2.9c-1.1-0.5-2.4,0-2.9,1.1l-4.3,9.2l-9.2-4.3
		c-1.1-0.5-2.4,0-2.9,1.1s0,2.4,1.1,2.9l9.2,4.3l-4.3,9.2c-0.5,1.1,0,2.4,1.1,2.9c1.1,0.5,2.4,0,2.9-1.1l4.3-9.2l9.2,4.3
		c1.1,0.5,2.4,0,2.9-1.1c0.5-1.1,0-2.4-1.1-2.9L118.7,144.6z"/>
	
		<linearGradient id="SVGID_25_" gradientUnits="userSpaceOnUse" x1="117.4966" y1="168.0385" x2="131.7143" y2="143.4126" gradientTransform="matrix(0.9397 -0.342 -0.342 -0.9397 2.4554 286.9365)">
		<stop  offset="0" style="stop-color:#498CFB"/>
		<stop  offset="0.3378" style="stop-color:#3E82E2"/>
		<stop  offset="1" style="stop-color:#2971B4"/>
	</linearGradient>
	<path class="st25" d="M69.2,96.9l4.3-9.2c0.5-1.1,0-2.4-1.1-2.9s-2.4,0-2.9,1.1L65.2,95l-9.2-4.3c-1.1-0.5-2.4,0-2.9,1.1
		c-0.5,1.1,0,2.4,1.1,2.9l9.2,4.3l-4.3,9.2c-0.5,1.1,0,2.4,1.1,2.9s2.4,0,2.9-1.1l4.3-9.2l9.2,4.3c1.1,0.5,2.4,0,2.9-1.1
		c0.5-1.1,0-2.4-1.1-2.9L69.2,96.9z"/>
	
		<linearGradient id="SVGID_26_" gradientUnits="userSpaceOnUse" x1="177.7691" y1="168.0185" x2="191.9869" y2="143.3926" gradientTransform="matrix(0.9397 -0.342 -0.342 -0.9397 2.4554 286.9365)">
		<stop  offset="0" style="stop-color:#498CFB"/>
		<stop  offset="0.3378" style="stop-color:#3E82E2"/>
		<stop  offset="1" style="stop-color:#2971B4"/>
	</linearGradient>
	<path class="st26" d="M125.9,76.3l4.3-9.2c0.5-1.1,0-2.4-1.1-2.9c-1.1-0.5-2.4,0-2.9,1.1l-4.3,9.2l-9.3-4.4c-1.1-0.5-2.4,0-2.9,1.1
		c-0.5,1.1,0,2.4,1.1,2.9l9.2,4.3l-4.3,9.2c-0.5,1.1,0,2.4,1.1,2.9c1.1,0.5,2.4,0,2.9-1.1l4.3-9.2l9.2,4.3c1.1,0.5,2.4,0,2.9-1.1
		c0.5-1.1,0-2.4-1.1-2.9L125.9,76.3z"/>
	
		<linearGradient id="SVGID_27_" gradientUnits="userSpaceOnUse" x1="147.5861" y1="76.1718" x2="161.8039" y2="51.5459" gradientTransform="matrix(0.9397 -0.342 -0.342 -0.9397 2.4554 286.9365)">
		<stop  offset="0" style="stop-color:#498CFB"/>
		<stop  offset="0.3378" style="stop-color:#3E82E2"/>
		<stop  offset="1" style="stop-color:#2971B4"/>
	</linearGradient>
	<path class="st27" d="M128.9,173l4.3-9.2c0.5-1.1,0-2.4-1.1-2.9c-1.1-0.5-2.4,0-2.9,1.1l-4.3,9.2l-9.2-4.3c-1.1-0.5-2.4,0-2.9,1.1
		c-0.5,1.1,0,2.4,1.1,2.9l9.2,4.3l-4.3,9.2c-0.5,1.1,0,2.4,1.1,2.9c1.1,0.5,2.4,0,2.9-1.1l4.3-9.2l9.2,4.3c1.1,0.5,2.4,0,2.9-1.1
		s0-2.4-1.1-2.9L128.9,173z"/>
	
		<linearGradient id="SVGID_28_" gradientUnits="userSpaceOnUse" x1="207.9179" y1="106.3397" x2="222.1356" y2="81.7138" gradientTransform="matrix(0.9397 -0.342 -0.342 -0.9397 2.4554 286.9365)">
		<stop  offset="0" style="stop-color:#498CFB"/>
		<stop  offset="0.3378" style="stop-color:#3E82E2"/>
		<stop  offset="1" style="stop-color:#2971B4"/>
	</linearGradient>
	<path class="st28" d="M175.3,124l4.3-9.2c0.5-1.1,0-2.4-1.1-2.9c-1.1-0.5-2.4,0-2.9,1.1l-4.3,9.2l-9.2-4.3c-1.1-0.5-2.4,0-2.9,1.1
		c-0.5,1.1,0,2.4,1.1,2.9l9.2,4.3l-4.3,9.2c-0.5,1.1,0,2.4,1.1,2.9s2.4,0,2.9-1.1l4.3-9.2l9.2,4.3c1.1,0.5,2.4,0,2.9-1.1
		s0-2.4-1.1-2.9L175.3,124z"/>
	
		<linearGradient id="SVGID_29_" gradientUnits="userSpaceOnUse" x1="146.897" y1="196.4914" x2="161.1148" y2="171.8655" gradientTransform="matrix(0.9397 -0.342 -0.342 -0.9397 2.4554 286.9365)">
		<stop  offset="0" style="stop-color:#498CFB"/>
		<stop  offset="0.3378" style="stop-color:#3E82E2"/>
		<stop  offset="1" style="stop-color:#2971B4"/>
	</linearGradient>
	<path class="st29" d="M87.1,60.1l4.3-9.2c0.5-1.1,0-2.4-1.1-2.9s-2.4,0-2.9,1.1l-4.3,9.2L73.9,54c-1.1-0.5-2.4,0-2.9,1.1
		s0,2.4,1.1,2.9l9.2,4.3l-4.3,9.2c-0.5,1.1,0,2.4,1.1,2.9s2.4,0,2.9-1.1l4.3-9.2l9.2,4.3c1.1,0.5,2.4,0,2.9-1.1
		c0.5-1.1,0-2.4-1.1-2.9L87.1,60.1z"/>
	
		<linearGradient id="SVGID_30_" gradientUnits="userSpaceOnUse" x1="118.5711" y1="104.2204" x2="130.1737" y2="84.1241" gradientTransform="matrix(0.9397 -0.342 -0.342 -0.9397 2.4554 286.9365)">
		<stop  offset="0" style="stop-color:#FB4949"/>
		<stop  offset="1" style="stop-color:#F52727"/>
	</linearGradient>
	<circle class="st30" cx="87.1" cy="155.9" r="10.1"/>
	
		<linearGradient id="SVGID_31_" gradientUnits="userSpaceOnUse" x1="148.7076" y1="135.7343" x2="160.3102" y2="115.638" gradientTransform="matrix(0.9397 -0.342 -0.342 -0.9397 2.4554 286.9365)">
		<stop  offset="0" style="stop-color:#FB4949"/>
		<stop  offset="1" style="stop-color:#F52727"/>
	</linearGradient>
	<circle class="st31" cx="104.6" cy="116" r="10.1"/>
	
		<linearGradient id="SVGID_32_" gradientUnits="userSpaceOnUse" x1="178.9382" y1="104.2556" x2="190.5409" y2="84.1593" gradientTransform="matrix(0.9397 -0.342 -0.342 -0.9397 2.4554 286.9365)">
		<stop  offset="0" style="stop-color:#FB4949"/>
		<stop  offset="1" style="stop-color:#F52727"/>
	</linearGradient>
	<circle class="st32" cx="143.9" cy="135.3" r="10.1"/>
	
		<linearGradient id="SVGID_33_" gradientUnits="userSpaceOnUse" x1="178.9442" y1="135.7826" x2="190.5468" y2="115.6863" gradientTransform="matrix(0.9397 -0.342 -0.342 -0.9397 2.4554 286.9365)">
		<stop  offset="0" style="stop-color:#FB4949"/>
		<stop  offset="1" style="stop-color:#F52727"/>
	</linearGradient>
	<circle class="st33" cx="133.1" cy="105.6" r="10.1"/>
	
		<linearGradient id="SVGID_34_" gradientUnits="userSpaceOnUse" x1="148.7784" y1="165.928" x2="160.3809" y2="145.8317" gradientTransform="matrix(0.9397 -0.342 -0.342 -0.9397 2.4554 286.9365)">
		<stop  offset="0" style="stop-color:#FB4949"/>
		<stop  offset="1" style="stop-color:#F52727"/>
	</linearGradient>
	<circle class="st34" cx="94.4" cy="87.6" r="10.1"/>
	
		<linearGradient id="SVGID_35_" gradientUnits="userSpaceOnUse" x1="208.7988" y1="74.8045" x2="220.4014" y2="54.7082" gradientTransform="matrix(0.9397 -0.342 -0.342 -0.9397 2.4554 286.9365)">
		<stop  offset="0" style="stop-color:#FB4949"/>
		<stop  offset="1" style="stop-color:#F52727"/>
	</linearGradient>
	<circle class="st35" cx="182" cy="152.7" r="10.1"/>
	
		<linearGradient id="SVGID_36_" gradientUnits="userSpaceOnUse" x1="238.8511" y1="135.8284" x2="250.4537" y2="115.7321" gradientTransform="matrix(0.9397 -0.342 -0.342 -0.9397 2.4554 286.9365)">
		<stop  offset="0" style="stop-color:#FB4949"/>
		<stop  offset="1" style="stop-color:#F52727"/>
	</linearGradient>
	<circle class="st36" cx="189.3" cy="85.1" r="10.1"/>
</g>
</svg>
