<?xml version="1.0" encoding="utf-8"?>
<!-- Generator: Adobe Illustrator 22.1.0, SVG Export Plug-In . SVG Version: 6.00 Build 0)  -->
<svg version="1.1" id="Layer_1" xmlns="http://www.w3.org/2000/svg" xmlns:xlink="http://www.w3.org/1999/xlink" x="0px" y="0px"
	 viewBox="0 0 256 128" style="enable-background:new 0 0 256 128;" xml:space="preserve">
<style type="text/css">
	.st0{fill:url(#SVGID_1_);}
	.st1{fill:#FFFFFF;}
	.st2{fill:url(#SVGID_2_);}
	.st3{fill:#FCFCFC;}
</style>
<linearGradient id="SVGID_1_" gradientUnits="userSpaceOnUse" x1="5" y1="60.1512" x2="251" y2="60.1512" gradientTransform="matrix(1 -0.175 0 1 0 20.4723)">
	<stop  offset="0" style="stop-color:#59AFFF"/>
	<stop  offset="1" style="stop-color:#418CFC"/>
</linearGradient>
<path class="st0" d="M240.5,84.2l-225,19.7C9.7,104.4,5,100.1,5,94.3V43.7c0-5.8,4.7-10.9,10.5-11.4l225-19.7
	c5.8-0.5,10.5,3.8,10.5,9.6v50.6C251,78.5,246.3,83.7,240.5,84.2z"/>
<g>
	<path class="st1" d="M63.2,80.6c-2.6,1.5-6.1,2.5-10.4,2.8c-5.6,0.5-9.9-0.8-13.1-3.8c-3.2-3-4.8-7.2-4.8-12.7
		c0-5.8,1.8-10.7,5.4-14.6c3.6-3.9,8.2-6.1,13.9-6.6c3.5-0.3,6.5-0.1,9,0.6v7.9c-2.4-1.2-5.2-1.7-8.3-1.4c-3.4,0.3-6.2,1.6-8.2,3.9
		c-2.1,2.3-3.1,5.3-3.1,9c0,3.5,1,6.2,3,8.1c2,1.9,4.6,2.7,8,2.4c3.2-0.3,6.1-1.3,8.8-3.1V80.6z"/>
	<path class="st1" d="M91.7,56.7c2.3,2.2,3.5,5.2,3.5,9.1c0,4.3-1.3,7.8-3.8,10.5c-2.5,2.7-6,4.3-10.4,4.6
		c-4.3,0.4-7.7-0.5-10.2-2.7c-2.5-2.2-3.7-5.4-3.7-9.5c0-4.3,1.3-7.7,3.8-10.4c2.6-2.6,6-4.2,10.4-4.5c1.1-0.1,2.4-0.1,3.9,0
		c1,0.1,1.9,0.1,2.8,0c3-0.3,4.5-1.6,4.5-4c0-0.8-0.2-1.8-0.5-2.8l4.9-0.4c0.4,1.1,0.6,2.2,0.6,3.3C97.5,53.8,95.6,56,91.7,56.7z
		 M87.5,49.8l-5.7,0.5l-7.9-7.5l7.1-0.6L87.5,49.8z M81.3,59.9c-1.9,0.2-3.4,0.9-4.4,2.3c-1,1.4-1.6,3.3-1.6,5.7c0,5,2,7.3,6,6.9
		c3.8-0.3,5.7-3.1,5.7-8.2C87,61.8,85.1,59.6,81.3,59.9z"/>
	<path class="st1" d="M142.4,73.7c-2.6,1.5-6.1,2.5-10.4,2.8c-5.6,0.5-9.9-0.8-13.1-3.8c-3.2-3-4.8-7.2-4.8-12.7
		c0-5.8,1.8-10.7,5.4-14.6c3.6-3.9,8.2-6.1,13.9-6.6c3.5-0.3,6.5-0.1,9,0.6v7.9c-2.4-1.2-5.2-1.7-8.3-1.4c-3.4,0.3-6.2,1.6-8.2,3.9
		c-2.1,2.3-3.1,5.3-3.1,9c0,3.5,1,6.2,3,8.1c2,1.9,4.6,2.7,8,2.4c3.2-0.3,6.1-1.3,8.8-3.1V73.7z"/>
	<path class="st1" d="M169.5,72.6l-7.6,0.7v-3.7l-0.1,0c-1.7,3.1-4.3,4.7-7.7,5c-2.5,0.2-4.5-0.3-5.9-1.6c-1.4-1.3-2.2-3.1-2.2-5.5
		c0-5,3-8.2,8.9-9.5l7-1.6c0-2.8-1.5-4.1-4.6-3.8c-3.1,0.3-6,1.4-8.8,3.5v-6c1.1-0.7,2.6-1.3,4.6-1.9c1.9-0.6,3.7-1,5.3-1.1
		c7.4-0.6,11.1,2.7,11.1,10.1V72.6z M162,62.8V61l-4.7,1c-2.6,0.6-3.9,1.8-3.9,3.9c0,0.9,0.3,1.6,0.9,2.2c0.6,0.5,1.5,0.7,2.6,0.6
		c1.5-0.1,2.7-0.8,3.7-1.9C161.5,65.7,162,64.3,162,62.8z"/>
	<path class="st1" d="M192.7,51.9c-1-0.4-2.1-0.6-3.4-0.5c-1.7,0.2-3.1,0.9-4.1,2.3c-1,1.4-1.5,3.1-1.5,5.3v12.4l-8,0.7V46.2l8-0.7
		v4.8l0.1,0c1.3-3.6,3.5-5.6,6.8-5.9c0.8-0.1,1.5,0,2,0.1V51.9z"/>
	<path class="st1" d="M208.6,69.8c-4.3,0.4-7.7-0.5-10.2-2.7c-2.5-2.2-3.7-5.4-3.7-9.5c0-4.3,1.3-7.7,3.8-10.4
		c2.6-2.6,6-4.2,10.4-4.5c4.3-0.4,7.7,0.5,10.1,2.7c2.4,2.2,3.7,5.3,3.7,9.3c0,4.3-1.3,7.8-3.8,10.5C216.4,67.9,213,69.5,208.6,69.8
		z M208.8,48.8c-1.9,0.2-3.4,0.9-4.4,2.3c-1,1.4-1.6,3.3-1.6,5.7c0,5,2,7.3,6,6.9c3.8-0.3,5.7-3.1,5.7-8.2
		C214.6,50.7,212.6,48.4,208.8,48.8z"/>
</g>
<linearGradient id="SVGID_2_" gradientUnits="userSpaceOnUse" x1="126.024" y1="58.4475" x2="221.8368" y2="144.7177" gradientTransform="matrix(1 -0.1048 0 1 0 15.3555)">
	<stop  offset="0" style="stop-color:#FFC53F"/>
	<stop  offset="4.773736e-02" style="stop-color:#FFBB40"/>
	<stop  offset="0.2116" style="stop-color:#FF9C42"/>
	<stop  offset="0.3834" style="stop-color:#FF8443"/>
	<stop  offset="0.5644" style="stop-color:#FF7244"/>
	<stop  offset="0.7606" style="stop-color:#FF6845"/>
	<stop  offset="1" style="stop-color:#FF6545"/>
</linearGradient>
<path class="st2" d="M242,109.2l-136.2,7.1c-3.2,0.2-5.8-2.3-5.8-5.5V94.4c0-3.2,2.6-6,5.8-6.1L242,81.1c3.2-0.2,5.8,2.3,5.8,5.5
	V103C247.9,106.2,245.3,109,242,109.2z"/>
<g>
	<path class="st3" d="M119.9,99.7c0,0.6-0.1,1.2-0.3,1.7c-0.2,0.5-0.5,1-0.9,1.4c-0.4,0.4-0.9,0.7-1.6,1s-1.4,0.4-2.2,0.5l-1.8,0.1
		l-1,4.6l-1.4,0.1l2.5-12.1l3.1-0.2c0.6,0,1.2,0,1.6,0.2c0.5,0.2,0.8,0.4,1.1,0.6s0.5,0.6,0.6,1S119.9,99.3,119.9,99.7z M118.4,99.9
		c0-0.3-0.1-0.6-0.2-0.8c-0.1-0.2-0.3-0.4-0.5-0.6c-0.2-0.2-0.4-0.3-0.7-0.4c-0.3-0.1-0.6-0.1-1-0.1l-1.6,0.1l-1,5l1.7-0.1
		c0.6,0,1.1-0.1,1.5-0.3c0.4-0.2,0.8-0.4,1.1-0.7c0.3-0.3,0.5-0.6,0.6-1C118.4,100.7,118.4,100.3,118.4,99.9z"/>
	<path class="st3" d="M128.6,101.7c0,0.1,0,0.2,0,0.3s0,0.3-0.1,0.5c0,0.2-0.1,0.3-0.1,0.5c0,0.2-0.1,0.3-0.1,0.4l-1,4.7l-1.4,0.1
		l1-5.1c0-0.1,0-0.2,0.1-0.3c0-0.1,0-0.2,0.1-0.4c0-0.1,0-0.2,0-0.3c0-0.1,0-0.2,0-0.2c0-0.4-0.1-0.8-0.3-1
		c-0.2-0.2-0.5-0.3-0.9-0.3c-0.4,0-0.7,0.1-1.1,0.4c-0.4,0.2-0.7,0.5-1,0.9c-0.3,0.3-0.6,0.7-0.8,1.2c-0.2,0.4-0.4,0.8-0.5,1.2
		l-0.9,4.2l-1.4,0.1l2.7-12.8l1.4-0.1l-1.3,6.2l0,0c0.2-0.3,0.4-0.6,0.7-0.9c0.2-0.3,0.5-0.5,0.8-0.7c0.3-0.2,0.6-0.4,0.9-0.5
		c0.3-0.1,0.6-0.2,0.9-0.2c0.7,0,1.3,0.1,1.6,0.5C128.4,100.4,128.6,100.9,128.6,101.7z"/>
	<path class="st3" d="M133,107.8c-0.1,0.1-0.3,0.1-0.5,0.1c-0.2,0-0.3,0.1-0.5,0.1c-0.6,0-1-0.1-1.3-0.4c-0.3-0.3-0.4-0.6-0.4-1.1
		c0-0.1,0-0.3,0-0.5c0-0.2,0.1-0.4,0.1-0.7l1.2-6l1.4-0.1l-1.3,6c0,0.2-0.1,0.4-0.1,0.5c0,0.1,0,0.2,0,0.3c0,0.2,0.1,0.4,0.2,0.5
		c0.1,0.1,0.3,0.2,0.6,0.1c0.1,0,0.3,0,0.4,0c0.1,0,0.2-0.1,0.3-0.1L133,107.8z M133.9,96.2c0,0.3-0.1,0.5-0.3,0.7s-0.4,0.3-0.6,0.3
		c-0.2,0-0.5-0.1-0.6-0.2c-0.2-0.2-0.3-0.4-0.3-0.6c0-0.3,0.1-0.5,0.3-0.6c0.2-0.2,0.4-0.3,0.6-0.3c0.2,0,0.5,0.1,0.6,0.2
		C133.9,95.7,133.9,95.9,133.9,96.2z"/>
	<path class="st3" d="M141.9,100.8c0,0.5-0.1,0.9-0.3,1.2c-0.2,0.4-0.5,0.7-1,1c-0.5,0.3-1.1,0.5-1.8,0.7c-0.8,0.2-1.7,0.3-2.8,0.4
		c0,0.1,0,0.1,0,0.2c0,0.1,0,0.1,0,0.2c0,0.3,0,0.6,0.1,0.8c0.1,0.3,0.2,0.5,0.4,0.7s0.4,0.3,0.7,0.4c0.3,0.1,0.6,0.1,1,0.1
		c0.4,0,0.8-0.1,1.3-0.3c0.5-0.2,0.9-0.4,1.3-0.7l-0.3,1.4c-0.3,0.2-0.7,0.4-1.1,0.5c-0.4,0.2-0.9,0.2-1.4,0.3c-0.6,0-1.2,0-1.6-0.2
		c-0.4-0.2-0.8-0.4-1-0.7c-0.3-0.3-0.5-0.7-0.6-1.1s-0.2-0.9-0.2-1.3c0-0.5,0.1-1,0.2-1.5c0.1-0.5,0.3-0.9,0.5-1.3
		c0.2-0.4,0.4-0.8,0.7-1.1s0.6-0.6,0.9-0.9c0.3-0.3,0.7-0.5,1.1-0.6c0.4-0.1,0.8-0.2,1.2-0.3c0.4,0,0.8,0,1.2,0.1
		c0.3,0.1,0.6,0.2,0.8,0.4c0.2,0.2,0.4,0.4,0.5,0.7C141.9,100.3,141.9,100.5,141.9,100.8z M140.5,101c0-0.4-0.1-0.6-0.4-0.8
		c-0.3-0.2-0.6-0.3-1-0.2c-0.3,0-0.7,0.1-1,0.3c-0.3,0.2-0.6,0.4-0.9,0.7c-0.3,0.3-0.5,0.6-0.7,1c-0.2,0.4-0.3,0.8-0.4,1.2
		c0.8,0,1.5-0.1,2-0.2s1-0.3,1.4-0.4c0.4-0.2,0.6-0.4,0.8-0.6C140.5,101.5,140.5,101.3,140.5,101z M140.7,97.3l-1-1.9l-1.8,2l-1,0.1
		l2.4-2.9l1.1-0.1l1.2,2.7L140.7,97.3z"/>
	<path class="st3" d="M151,100.5c0,0.1,0,0.2,0,0.3c0,0.1,0,0.3-0.1,0.5c0,0.2-0.1,0.3-0.1,0.5c0,0.2-0.1,0.3-0.1,0.4l-1,4.7
		l-1.4,0.1l1-5.1c0-0.1,0-0.2,0.1-0.3c0-0.1,0-0.2,0.1-0.4c0-0.1,0-0.2,0-0.3c0-0.1,0-0.2,0-0.2c0-0.4-0.1-0.8-0.3-1
		c-0.2-0.2-0.5-0.3-0.9-0.3c-0.4,0-0.7,0.1-1.1,0.4c-0.4,0.2-0.7,0.5-1,0.9c-0.3,0.3-0.6,0.7-0.8,1.1s-0.4,0.8-0.4,1.2l-0.9,4.2
		l-1.4,0.1l1.3-6.2c0-0.2,0.1-0.4,0.1-0.7s0.1-0.5,0.1-0.7c0-0.2,0.1-0.4,0.1-0.6c0-0.2,0.1-0.3,0.1-0.5l1.3-0.1
		c0,0.2-0.1,0.4-0.1,0.7s-0.1,0.5-0.1,0.7c0,0.2-0.1,0.5-0.1,0.7l0,0c0.2-0.3,0.4-0.6,0.6-0.9s0.5-0.5,0.8-0.8
		c0.3-0.2,0.6-0.4,0.9-0.5c0.3-0.1,0.6-0.2,1-0.2c0.4,0,0.7,0,1,0.1c0.3,0.1,0.5,0.2,0.7,0.4c0.2,0.2,0.3,0.4,0.4,0.7
		C151,99.8,151,100.1,151,100.5z"/>
	<path class="st3" d="M165.2,100.6c0,0.4,0,0.8-0.1,1.2c-0.1,0.4-0.2,0.9-0.4,1.3c-0.2,0.4-0.4,0.9-0.7,1.3c-0.3,0.4-0.6,0.8-1,1.1
		c-0.4,0.3-0.8,0.6-1.3,0.8c-0.5,0.2-1.1,0.3-1.7,0.4c-0.3,0-0.5,0-0.8,0c-0.3,0-0.5-0.1-0.8-0.1c-0.3-0.1-0.5-0.1-0.8-0.2
		s-0.5-0.2-0.7-0.3l2.6-12.2l1.4-0.1l-0.9,4.1c-0.1,0.3-0.1,0.6-0.2,0.9c-0.1,0.3-0.1,0.6-0.2,0.8l0,0c0.2-0.3,0.4-0.6,0.6-0.8
		s0.4-0.4,0.6-0.6c0.2-0.2,0.5-0.3,0.7-0.4s0.6-0.2,0.9-0.2c0.8,0,1.4,0.2,1.9,0.7C165,98.8,165.2,99.6,165.2,100.6z M163.8,100.7
		c0-0.3,0-0.6-0.1-0.9c-0.1-0.3-0.2-0.5-0.3-0.6c-0.1-0.2-0.3-0.3-0.5-0.4c-0.2-0.1-0.4-0.1-0.7-0.1c-0.4,0-0.7,0.1-1,0.4
		c-0.3,0.2-0.6,0.5-0.9,0.9c-0.3,0.4-0.5,0.8-0.7,1.2c-0.2,0.4-0.3,0.9-0.4,1.3l-0.6,2.7c0.2,0.1,0.4,0.2,0.7,0.2
		c0.3,0.1,0.6,0.1,0.9,0.1c0.4,0,0.8-0.1,1.1-0.3c0.3-0.1,0.6-0.3,0.9-0.6c0.3-0.2,0.5-0.5,0.7-0.8c0.2-0.3,0.4-0.6,0.5-1
		c0.1-0.3,0.2-0.7,0.3-1.1C163.8,101.4,163.8,101,163.8,100.7z"/>
	<path class="st3" d="M173.4,103c0,0.2-0.1,0.5-0.1,0.7c0,0.3-0.1,0.5-0.1,0.8s-0.1,0.5-0.1,0.7s0,0.4,0,0.5l-1.4,0.1
		c0-0.1,0-0.2,0-0.4c0-0.2,0-0.3,0-0.5c0-0.2,0-0.3,0.1-0.5c0-0.2,0-0.3,0.1-0.4l0,0c-0.2,0.3-0.3,0.5-0.5,0.8
		c-0.2,0.3-0.4,0.5-0.6,0.7c-0.2,0.2-0.5,0.4-0.7,0.5c-0.3,0.1-0.6,0.2-0.9,0.2c-0.4,0-0.7,0-1-0.1c-0.3-0.1-0.6-0.3-0.8-0.6
		c-0.2-0.3-0.4-0.6-0.5-1c-0.1-0.4-0.2-0.9-0.2-1.4c0-0.3,0-0.7,0.1-1.1s0.2-0.8,0.3-1.3c0.2-0.4,0.4-0.9,0.6-1.3
		c0.3-0.4,0.6-0.8,1-1.2c0.4-0.3,0.9-0.6,1.4-0.8c0.5-0.2,1.2-0.4,1.9-0.4c0.4,0,0.9,0,1.4,0c0.5,0,0.9,0.1,1.4,0.2L173.4,103z
		 M173,98.3c-0.2,0-0.4-0.1-0.7-0.1c-0.3,0-0.5,0-0.7,0c-0.5,0-0.9,0.1-1.3,0.3c-0.4,0.2-0.7,0.4-1,0.7c-0.3,0.3-0.5,0.6-0.7,0.9
		c-0.2,0.3-0.3,0.7-0.4,1c-0.1,0.3-0.2,0.7-0.2,1c0,0.3-0.1,0.6-0.1,0.9c0,0.3,0,0.6,0.1,0.9c0.1,0.3,0.1,0.5,0.3,0.6
		c0.1,0.2,0.3,0.3,0.5,0.4c0.2,0.1,0.4,0.1,0.7,0.1c0.3,0,0.5-0.1,0.8-0.2c0.2-0.1,0.5-0.3,0.7-0.5c0.2-0.2,0.4-0.4,0.6-0.7
		c0.2-0.3,0.3-0.5,0.5-0.8s0.3-0.6,0.4-0.9c0.1-0.3,0.2-0.6,0.2-0.9L173,98.3z M171.3,92.7c0.1,0,0.2,0,0.3,0c0.1,0,0.2,0,0.3,0
		c0.3,0,0.5,0,0.7,0.1c0.2,0,0.3,0.1,0.5,0.2c0.1,0.1,0.2,0.2,0.3,0.4c0.1,0.1,0.1,0.3,0.1,0.5c0,0.2,0,0.4-0.1,0.5
		c-0.1,0.2-0.2,0.3-0.3,0.4c-0.1,0.1-0.3,0.2-0.4,0.3c-0.2,0.1-0.3,0.1-0.5,0.2l-0.1,0.4l-0.9,0l0.2-1c0.3,0,0.6-0.1,0.8-0.2
		c0.2-0.1,0.3-0.3,0.3-0.5c0-0.1,0-0.3-0.1-0.3c-0.1-0.1-0.3-0.1-0.5-0.1c-0.1,0-0.2,0-0.3,0c-0.1,0-0.2,0-0.3,0.1L171.3,92.7z"/>
	<path class="st3" d="M183.9,98.8c0,0.1,0,0.2,0,0.3c0,0.1,0,0.3-0.1,0.5c0,0.2-0.1,0.3-0.1,0.5c0,0.2-0.1,0.3-0.1,0.4l-1,4.7
		l-1.4,0.1l1-5.1c0-0.1,0-0.2,0.1-0.3c0-0.1,0-0.2,0.1-0.4c0-0.1,0-0.2,0-0.3c0-0.1,0-0.2,0-0.2c0-0.4-0.1-0.8-0.3-1
		c-0.2-0.2-0.5-0.3-0.9-0.3c-0.4,0-0.7,0.1-1.1,0.4c-0.4,0.2-0.7,0.5-1,0.9c-0.3,0.4-0.6,0.7-0.8,1.1c-0.2,0.4-0.4,0.8-0.4,1.2
		l-0.9,4.2l-1.4,0.1l1.3-6.2c0-0.2,0.1-0.4,0.1-0.7c0-0.2,0.1-0.5,0.1-0.7c0-0.2,0.1-0.4,0.1-0.6c0-0.2,0.1-0.3,0.1-0.5l1.3-0.1
		c0,0.2-0.1,0.4-0.1,0.7c0,0.2-0.1,0.5-0.1,0.7c0,0.2-0.1,0.5-0.1,0.7l0,0c0.2-0.3,0.4-0.6,0.6-0.9c0.2-0.3,0.5-0.5,0.8-0.8
		c0.3-0.2,0.6-0.4,0.9-0.5c0.3-0.1,0.6-0.2,1-0.2c0.4,0,0.7,0,1,0.1c0.3,0.1,0.5,0.2,0.7,0.4s0.3,0.4,0.4,0.7
		C183.9,98.1,183.9,98.4,183.9,98.8z"/>
	<path class="st3" d="M195.9,97.5L195.9,97.5c-0.1-0.1-0.3-0.1-0.5-0.2s-0.4-0.1-0.5-0.1c-0.3,0-0.6,0.1-0.9,0.4s-0.6,0.5-0.8,0.9
		s-0.5,0.8-0.6,1.2c-0.2,0.5-0.3,0.9-0.4,1.4l-0.8,3.8l-1.4,0.1l1.2-5.8c0.1-0.2,0.1-0.5,0.2-0.7c0.1-0.3,0.1-0.5,0.1-0.8
		c0-0.3,0.1-0.5,0.1-0.7c0-0.2,0.1-0.5,0.1-0.6l1.4-0.1c0,0.2,0,0.3-0.1,0.5s0,0.4-0.1,0.5c0,0.2,0,0.3-0.1,0.5c0,0.1,0,0.3-0.1,0.3
		l0,0c0.2-0.3,0.4-0.6,0.5-0.9s0.4-0.5,0.6-0.7c0.2-0.2,0.4-0.3,0.6-0.5s0.5-0.2,0.7-0.2c0.2,0,0.3,0,0.5,0c0.2,0,0.3,0,0.4,0.1
		L195.9,97.5z"/>
	<path class="st3" d="M203.6,97.6c0,0.5-0.1,0.9-0.3,1.3s-0.5,0.7-1,1s-1.1,0.5-1.8,0.7c-0.8,0.2-1.7,0.3-2.8,0.4c0,0.1,0,0.1,0,0.2
		c0,0.1,0,0.1,0,0.2c0,0.3,0,0.6,0.1,0.8c0.1,0.3,0.2,0.5,0.4,0.7c0.2,0.2,0.4,0.3,0.7,0.4c0.3,0.1,0.6,0.1,1,0.1
		c0.4,0,0.8-0.1,1.3-0.3c0.5-0.2,0.9-0.4,1.3-0.7l-0.3,1.4c-0.3,0.2-0.7,0.4-1.1,0.5c-0.4,0.2-0.9,0.2-1.4,0.3c-0.6,0-1.2,0-1.6-0.2
		c-0.4-0.2-0.8-0.4-1-0.7s-0.5-0.7-0.6-1.1c-0.1-0.4-0.2-0.9-0.2-1.3c0-0.5,0.1-1,0.2-1.5c0.1-0.5,0.3-0.9,0.5-1.3
		c0.2-0.4,0.4-0.8,0.7-1.1c0.3-0.3,0.6-0.6,0.9-0.9c0.3-0.3,0.7-0.5,1.1-0.6s0.8-0.2,1.2-0.3c0.4,0,0.8,0,1.2,0.1
		c0.3,0.1,0.6,0.2,0.8,0.4c0.2,0.2,0.4,0.4,0.5,0.7S203.6,97.3,203.6,97.6z M202.2,97.7c0-0.4-0.1-0.6-0.4-0.8s-0.6-0.3-1-0.2
		c-0.3,0-0.7,0.1-1,0.3c-0.3,0.2-0.6,0.4-0.9,0.7c-0.3,0.3-0.5,0.6-0.7,1c-0.2,0.4-0.3,0.8-0.4,1.2c0.8,0,1.5-0.1,2-0.2
		c0.6-0.1,1-0.3,1.4-0.4c0.4-0.2,0.6-0.4,0.8-0.6C202.1,98.3,202.2,98,202.2,97.7z M200.3,91.2c0.1,0,0.2,0,0.3,0c0.1,0,0.2,0,0.3,0
		c0.3,0,0.5,0,0.7,0.1s0.3,0.1,0.5,0.2c0.1,0.1,0.2,0.2,0.3,0.4c0.1,0.1,0.1,0.3,0.1,0.5c0,0.2,0,0.4-0.1,0.5
		c-0.1,0.2-0.2,0.3-0.3,0.4c-0.1,0.1-0.3,0.2-0.4,0.3c-0.2,0.1-0.3,0.1-0.5,0.2l-0.1,0.4l-0.9,0l0.2-1c0.3,0,0.6-0.1,0.8-0.2
		s0.3-0.3,0.3-0.5c0-0.1,0-0.3-0.1-0.3c-0.1-0.1-0.3-0.1-0.5-0.1c-0.1,0-0.2,0-0.3,0c-0.1,0-0.2,0-0.3,0.1L200.3,91.2z"/>
	<path class="st3" d="M214.4,96.2l-2.2,0.1l-1,4.6c0,0.2-0.1,0.4-0.1,0.6c0,0.2,0,0.4,0,0.5c0,0.3,0.1,0.5,0.2,0.6
		c0.1,0.1,0.3,0.2,0.6,0.2c0.1,0,0.2,0,0.3,0c0.1,0,0.2-0.1,0.3-0.1c0.1,0,0.2-0.1,0.3-0.1c0.1,0,0.2-0.1,0.3-0.1l-0.3,1.2
		c-0.2,0.1-0.4,0.2-0.7,0.2c-0.2,0.1-0.5,0.1-0.7,0.1c-0.3,0-0.6,0-0.8-0.1c-0.2-0.1-0.4-0.2-0.5-0.3c-0.1-0.1-0.2-0.3-0.3-0.5
		c-0.1-0.2-0.1-0.5-0.1-0.7c0-0.2,0-0.3,0-0.6c0-0.2,0.1-0.4,0.1-0.6l1-4.7l-1.4,0.1l0.3-1.2l1.4-0.1l0.4-2.1c0,0,0.1,0,0.3-0.1
		c0.1-0.1,0.3-0.1,0.5-0.2c0.2-0.1,0.3-0.1,0.5-0.2c0.1-0.1,0.2-0.1,0.2-0.1l-0.5,2.6l2.2-0.1L214.4,96.2z"/>
	<path class="st3" d="M217.6,103.4c-0.1,0.1-0.3,0.1-0.5,0.1c-0.2,0-0.3,0.1-0.5,0.1c-0.6,0-1-0.1-1.3-0.4c-0.3-0.3-0.4-0.6-0.4-1.1
		c0-0.1,0-0.3,0-0.5c0-0.2,0.1-0.4,0.1-0.7l1.2-6l1.4-0.1l-1.3,6c0,0.2-0.1,0.4-0.1,0.5c0,0.1,0,0.2,0,0.3c0,0.2,0.1,0.4,0.2,0.5
		c0.1,0.1,0.3,0.2,0.6,0.1c0.1,0,0.3,0,0.4,0c0.1,0,0.2-0.1,0.3-0.1L217.6,103.4z M218.6,91.8c0,0.3-0.1,0.5-0.3,0.7
		s-0.4,0.3-0.6,0.3c-0.2,0-0.5-0.1-0.6-0.2c-0.2-0.2-0.3-0.4-0.3-0.6c0-0.3,0.1-0.5,0.3-0.6c0.2-0.2,0.4-0.3,0.6-0.3
		c0.2,0,0.5,0.1,0.6,0.2C218.5,91.3,218.6,91.5,218.6,91.8z"/>
	<path class="st3" d="M226.6,96.4c0,0.5-0.1,0.9-0.3,1.3c-0.2,0.4-0.5,0.7-1,1c-0.5,0.3-1.1,0.5-1.8,0.7c-0.8,0.2-1.7,0.3-2.8,0.4
		c0,0.1,0,0.1,0,0.2c0,0.1,0,0.1,0,0.2c0,0.3,0,0.6,0.1,0.8c0.1,0.3,0.2,0.5,0.4,0.7c0.2,0.2,0.4,0.3,0.7,0.4c0.3,0.1,0.6,0.1,1,0.1
		c0.4,0,0.8-0.1,1.3-0.3c0.5-0.2,0.9-0.4,1.3-0.7l-0.3,1.4c-0.3,0.2-0.7,0.4-1.1,0.5c-0.4,0.2-0.9,0.2-1.4,0.3c-0.6,0-1.2,0-1.6-0.2
		c-0.4-0.2-0.8-0.4-1-0.7c-0.3-0.3-0.5-0.7-0.6-1.1c-0.1-0.4-0.2-0.9-0.2-1.3c0-0.5,0.1-1,0.2-1.5c0.1-0.5,0.3-0.9,0.5-1.3
		c0.2-0.4,0.4-0.8,0.7-1.1c0.3-0.3,0.6-0.6,0.9-0.9c0.3-0.3,0.7-0.5,1.1-0.6c0.4-0.1,0.8-0.2,1.2-0.3c0.4,0,0.8,0,1.2,0.1
		c0.3,0.1,0.6,0.2,0.8,0.4c0.2,0.2,0.4,0.4,0.5,0.7C226.5,95.8,226.6,96.1,226.6,96.4z M223.2,91.7l-0.9,0l-1.6-2l1.4-0.1
		L223.2,91.7z M225.2,96.5c0-0.4-0.1-0.6-0.4-0.8c-0.3-0.2-0.6-0.3-1-0.2c-0.3,0-0.7,0.1-1,0.3c-0.3,0.2-0.6,0.4-0.9,0.7
		c-0.3,0.3-0.5,0.6-0.7,1c-0.2,0.4-0.3,0.8-0.4,1.2c0.8,0,1.5-0.1,2-0.2s1-0.3,1.4-0.4c0.4-0.2,0.6-0.4,0.8-0.6
		C225.1,97.1,225.2,96.8,225.2,96.5z M226.2,92.8l-1-1.2l-1.8,1.3l-1,0.1l2.4-2.2l1.1-0.1l1.2,2L226.2,92.8z"/>
	<path class="st3" d="M235.7,96.1c0,0.1,0,0.2,0,0.3c0,0.1,0,0.3-0.1,0.5c0,0.2-0.1,0.3-0.1,0.5c0,0.2-0.1,0.3-0.1,0.4l-1,4.7
		l-1.4,0.1l1-5.1c0-0.1,0-0.2,0.1-0.3c0-0.1,0-0.2,0.1-0.4c0-0.1,0-0.2,0-0.3c0-0.1,0-0.2,0-0.2c0-0.4-0.1-0.8-0.3-1
		c-0.2-0.2-0.5-0.3-0.9-0.3c-0.4,0-0.7,0.1-1.1,0.4c-0.4,0.2-0.7,0.5-1,0.9s-0.6,0.7-0.8,1.1s-0.4,0.8-0.4,1.2l-0.9,4.2l-1.4,0.1
		l1.3-6.2c0-0.2,0.1-0.4,0.1-0.7c0-0.2,0.1-0.5,0.1-0.7c0-0.2,0.1-0.4,0.1-0.6c0-0.2,0.1-0.3,0.1-0.5l1.3-0.1c0,0.2-0.1,0.4-0.1,0.7
		c0,0.2-0.1,0.5-0.1,0.7c0,0.2-0.1,0.5-0.1,0.7l0,0c0.2-0.3,0.4-0.6,0.6-0.9c0.2-0.3,0.5-0.5,0.8-0.8c0.3-0.2,0.6-0.4,0.9-0.5
		c0.3-0.1,0.6-0.2,1-0.2c0.4,0,0.7,0,1,0.1c0.3,0.1,0.5,0.2,0.7,0.4s0.3,0.4,0.4,0.7C235.6,95.4,235.7,95.7,235.7,96.1z"/>
</g>
</svg>
